<mxfile host="app.diagrams.net" modified="2023-12-08T18:07:55.413Z" agent="Mozilla/5.0 (Windows NT 10.0; Win64; x64) AppleWebKit/537.36 (KHTML, like Gecko) Chrome/119.0.0.0 Safari/537.36 Edg/119.0.0.0" version="21.2.9" etag="EErehEZvccx_w9epxSr1" type="github">
  <diagram name="Page-1" id="SfWelmFNv5qVq2uMoU9x">
    <mxGraphModel>
      <root>
        <mxCell id="0" />
        <mxCell id="1" parent="0" />
      </root>
    </mxGraphModel>
  </diagram>
</mxfile>
